<svg width="19" height="18" viewBox="0 0 19 18" fill="none" xmlns="http://www.w3.org/2000/svg">
<g id="bank-note-06">
<path id="Icon" d="M5.00005 4.50008V7.65008M14 4.50008V7.65008M13.55 10.8001H15.35C16.0956 10.8001 16.7 10.1957 16.7 9.45008V3.15008C16.7 2.4045 16.0956 1.80008 15.35 1.80008H3.65005C2.90446 1.80008 2.30005 2.40449 2.30005 3.15008V9.45008C2.30005 10.1957 2.90446 10.8001 3.65005 10.8001H5.45005M6.95375 13.6543L9.49933 16.1999M9.49933 16.1999L11.8734 13.8258M9.49933 16.1999L9.49944 10.9932M11.3 6.30008C11.3 7.29419 10.4942 8.10008 9.50005 8.10008C8.50594 8.10008 7.70005 7.29419 7.70005 6.30008C7.70005 5.30597 8.50594 4.50008 9.50005 4.50008C10.4942 4.50008 11.3 5.30597 11.3 6.30008Z" stroke="#09090A" stroke-width="1.5" stroke-linecap="round" stroke-linejoin="round"/>
</g>
</svg>
