<svg width="18" height="18" viewBox="0 0 18 18" fill="none" xmlns="http://www.w3.org/2000/svg">
<g id="bank-note-07">
<path id="Icon" d="M13.1999 13.1998V10.0498M4.1999 13.1998V10.0498M4.6499 6.89978H2.8499C2.10432 6.89978 1.4999 7.50419 1.4999 8.24978L1.4999 14.5498C1.4999 15.2954 2.10432 15.8998 2.8499 15.8998L14.5499 15.8998C15.2955 15.8998 15.8999 15.2954 15.8999 14.5498L15.8999 8.24978C15.8999 7.50419 15.2955 6.89978 14.5499 6.89978H12.7499M11.2462 4.125L8.70062 6.89978M8.70062 6.89978L6.32653 4.125M8.70062 6.89978L8.70062 1.5M6.8999 11.3998C6.8999 10.4057 7.70579 9.59978 8.6999 9.59978C9.69402 9.59978 10.4999 10.4057 10.4999 11.3998C10.4999 12.3939 9.69402 13.1998 8.6999 13.1998C7.70579 13.1998 6.8999 12.3939 6.8999 11.3998Z" stroke="#E8E8EE" stroke-width="1.5" stroke-linecap="round" stroke-linejoin="round"/>
</g>
</svg>
