<svg width="16" height="16" viewBox="0 0 16 16" fill="none" xmlns="http://www.w3.org/2000/svg">
<g id="wind-03">
<path id="Icon" d="M4.94469 13.879C5.7907 14.0571 6.84098 14.1626 7.97879 14.1626C9.20238 14.1626 10.3247 14.0406 11.2007 13.8375M2.58957 8.17429C3.72761 8.82733 5.71618 9.26 7.97905 9.26C10.2419 9.26 12.2305 8.82733 13.3685 8.17429M3.6001 11.0374C4.52475 11.4427 6.14047 11.7111 7.97905 11.7111C9.81763 11.7111 11.4333 11.4427 12.358 11.0374M14.4001 4.19534C14.4001 5.49757 11.5347 6.55323 8.0001 6.55323C4.46548 6.55323 1.6001 5.49757 1.6001 4.19534C1.6001 2.89311 4.46548 1.83745 8.0001 1.83745C11.5347 1.83745 14.4001 2.89311 14.4001 4.19534Z" stroke="white" stroke-width="1.5" stroke-linecap="round"/>
</g>
</svg>
