<svg width="16" height="16" viewBox="0 0 16 16" fill="none" xmlns="http://www.w3.org/2000/svg">
<g id="copy-right">
<path id="Icon" d="M4 9.60002L2.4 9.60002C1.95817 9.60002 1.6 9.24185 1.6 8.80002L1.6 3.60002C1.6 2.49546 2.49543 1.60002 3.6 1.60002L8.8 1.60003C9.24183 1.60003 9.6 1.9582 9.6 2.40003L9.6 4.00003M8 14.4L12.8 14.4C13.6837 14.4 14.4 13.6837 14.4 12.8L14.4 8.00003C14.4 7.11637 13.6837 6.40003 12.8 6.40003L8 6.40002C7.11635 6.40002 6.4 7.11637 6.4 8.00002L6.4 12.8C6.4 13.6837 7.11635 14.4 8 14.4Z" stroke="white" stroke-width="1.5" stroke-linecap="round"/>
</g>
</svg>
