<svg width="32" height="32" viewBox="0 0 32 32" fill="none" xmlns="http://www.w3.org/2000/svg">
<path d="M15.2891 21.297C15.2891 20.9016 14.96 20.6016 14.5659 20.5982C13.3868 20.5846 12.6568 19.3098 13.2497 18.2906L13.9558 17.0737L15.3405 14.6877C15.6352 14.1832 16.3687 14.1832 16.6635 14.6877L18.0482 17.0737L18.7542 18.2906C19.3472 19.3098 18.6137 20.5812 17.4381 20.5982C17.0405 20.605 16.7149 20.9016 16.7149 21.297C16.7149 24.2352 19.1107 26.6144 22.0618 26.6144H28.3306C26.4901 20.9766 21.5888 11.8517 15.9986 5.3822C10.8779 11.4836 6.81292 18.386 3.97497 25.8168L3.66992 26.6178H9.93878C12.8933 26.6178 15.2856 24.2352 15.2856 21.3004L15.2891 21.297Z" fill="#657DFA"/>
</svg>
