<svg width="26" height="26" viewBox="0 0 26 26" fill="none" xmlns="http://www.w3.org/2000/svg">
<circle cx="13" cy="13" r="13" fill="#657DFA"/>
<g clip-path="url(#clip0_624_509)">
<path d="M12.9984 4L12.8776 4.4102V16.3121L12.9984 16.4326L18.523 13.1669L12.9984 4Z" fill="#C0CBF6"/>
<path d="M12.9984 4L7.47363 13.1669L12.9984 16.4326V10.6557V4Z" fill="white"/>
<path d="M12.9984 17.4786L12.9303 17.5615V21.8012L12.9984 21.9999L18.5264 14.2146L12.9984 17.4786Z" fill="#C0CBF6"/>
<path d="M12.9984 21.9999V17.4786L7.47363 14.2146L12.9984 21.9999Z" fill="white"/>
<path d="M12.9984 16.4325L18.523 13.1669L12.9984 10.6557V16.4325Z" fill="#8197EE"/>
<path d="M7.47363 13.1669L12.9984 16.4325V10.6557L7.47363 13.1669Z" fill="#C0CBF6"/>
</g>
<defs>
<clipPath id="clip0_624_509">
<rect width="18" height="18" fill="white" transform="translate(4 4)"/>
</clipPath>
</defs>
</svg>
