<svg width="46" height="46" viewBox="0 0 46 46" fill="none" xmlns="http://www.w3.org/2000/svg">
<g filter="url(#filter0_d_612_363)">
<g clip-path="url(#clip0_612_363)">
<path d="M22.9984 8L22.8776 8.4102V20.3121L22.9984 20.4326L28.523 17.1669L22.9984 8Z" fill="#E3E7F2"/>
<path d="M22.9984 8L17.4736 17.1669L22.9984 20.4326V14.6557V8Z" fill="white"/>
<path d="M22.9984 21.4786L22.9303 21.5615V25.8012L22.9984 25.9999L28.5264 18.2146L22.9984 21.4786Z" fill="#E3E7F2"/>
<path d="M22.9984 25.9999V21.4786L17.4736 18.2146L22.9984 25.9999Z" fill="white"/>
<path d="M22.9984 20.4325L28.523 17.1669L22.9984 14.6557V20.4325Z" fill="#B9C1E1"/>
<path d="M17.4736 17.1669L22.9984 20.4325V14.6557L17.4736 17.1669Z" fill="#E3E7F2"/>
</g>
</g>
<defs>
<filter id="filter0_d_612_363" x="0" y="0" width="46" height="46" filterUnits="userSpaceOnUse" color-interpolation-filters="sRGB">
<feFlood flood-opacity="0" result="BackgroundImageFix"/>
<feColorMatrix in="SourceAlpha" type="matrix" values="0 0 0 0 0 0 0 0 0 0 0 0 0 0 0 0 0 0 127 0" result="hardAlpha"/>
<feOffset dy="6"/>
<feGaussianBlur stdDeviation="5"/>
<feColorMatrix type="matrix" values="0 0 0 0 0 0 0 0 0 0 0 0 0 0 0 0 0 0 0.05 0"/>
<feBlend mode="normal" in2="BackgroundImageFix" result="effect1_dropShadow_612_363"/>
<feBlend mode="normal" in="SourceGraphic" in2="effect1_dropShadow_612_363" result="shape"/>
</filter>
<clipPath id="clip0_612_363">
<rect width="18" height="18" fill="white" transform="translate(14 8)"/>
</clipPath>
</defs>
</svg>
