<svg width="16" height="17" viewBox="0 0 16 17" fill="none" xmlns="http://www.w3.org/2000/svg">
<path id="Subtract" fill-rule="evenodd" clip-rule="evenodd" d="M8 16.5C12.4183 16.5 16 12.9183 16 8.5C16 4.08172 12.4183 0.5 8 0.5C3.58172 0.5 0 4.08172 0 8.5C0 12.9183 3.58172 16.5 8 16.5ZM9.09091 4.7C9.09091 4.14772 8.66761 3.7 8.14545 3.7C7.62329 3.7 7.2 4.14772 7.2 4.7V4.74219C7.2 5.29447 7.62329 5.74219 8.14545 5.74219C8.66761 5.74219 9.09091 5.29447 9.09091 4.74219V4.7ZM9.09091 8.3C9.09091 7.74772 8.66761 7.3 8.14545 7.3C7.6233 7.3 7.2 7.74771 7.2 8.3L7.2 13.1C7.2 13.6523 7.62329 14.1 8.14545 14.1C8.66761 14.1 9.09091 13.6523 9.09091 13.1L9.09091 8.3Z" fill="#4A5967"/>
</svg>
